<svg width="500" height="500" viewBox="0 0 500 500" fill="none" xmlns="http://www.w3.org/2000/svg">
<path d="M389.658 241.211L375.614 276.919L428.594 297.756L442.638 262.049L389.658 241.211Z" fill="#EBEBEB"/>
<path d="M442.62 262.5C442.406 262.621 442.177 262.715 441.94 262.78L439.94 263.5L432.62 266L408.32 274.19L408.12 274.26L408.01 274.07L407.76 273.63L394.85 251.06L391 244.22L390 242.34C389.867 242.13 389.76 241.905 389.68 241.67C389.837 241.863 389.974 242.07 390.09 242.29L391.21 244.12L395.21 250.91L408.21 273.4L408.47 273.84L408.16 273.73L432.52 265.68L439.9 263.31L441.9 262.69C442.135 262.608 442.376 262.545 442.62 262.5Z" fill="#E0E0E0"/>
<path d="M375.59 277.38C375.53 277.26 381.44 273.93 388.79 269.95C396.14 265.97 402.17 262.84 402.24 262.95C402.31 263.06 396.4 266.4 389.04 270.38C381.68 274.36 375.66 277.51 375.59 277.38Z" fill="#E0E0E0"/>
<path d="M420 269.45C420.14 269.45 422.17 275.81 424.53 283.76C426.89 291.71 428.69 298.17 428.53 298.21C428.37 298.25 426.36 291.85 424 283.9C421.64 275.95 419.89 269.49 420 269.45Z" fill="#E0E0E0"/>
<path d="M214.549 391.443L163.613 416.871L180.752 451.201L231.687 425.772L214.549 391.443Z" fill="#EBEBEB"/>
<path d="M214.91 391.79C214.843 392.026 214.759 392.256 214.66 392.48L213.86 394.43C213.13 396.17 212.1 398.6 210.86 401.57L200.68 425.12L200.59 425.31H200.38L199.88 425.2L174.48 419.69L166.79 417.96L164.71 417.46C164.466 417.41 164.225 417.343 163.99 417.26C164.24 417.264 164.488 417.298 164.73 417.36L166.83 417.76L174.55 419.33L200 424.65L200.5 424.76L200.21 424.91C204.21 415.75 207.88 407.47 210.53 401.43C211.86 398.48 212.94 396.07 213.71 394.35C214.08 393.56 214.37 392.92 214.59 392.44C214.673 392.212 214.78 391.995 214.91 391.79Z" fill="#E0E0E0"/>
<path d="M181.11 451.55C180.97 451.55 182.45 444.9 184.41 436.77C186.37 428.64 188.09 422.07 188.22 422.11C188.35 422.15 186.88 428.76 184.92 436.89C182.96 445.02 181.24 451.58 181.11 451.55Z" fill="#E0E0E0"/>
<path d="M204.94 413.23C205 413.1 211.12 415.88 218.6 419.44C226.08 423 232.11 426 232 426.12C231.89 426.24 225.83 423.47 218.34 419.91C210.85 416.35 204.88 413.35 204.94 413.23Z" fill="#E0E0E0"/>
<path d="M130.87 262.58C150.23 249.66 154.95 225.22 154.54 203.18C154.47 199.5 154.94 195.63 153.22 192.37C151.5 189.11 147.39 186.85 144.03 188.37C141.24 189.62 140.03 192.78 138.4 195.37C136.267 198.855 133.192 201.667 129.53 203.48C127.14 204.66 124.19 205.36 121.87 204.05C118.68 202.25 118.37 197.86 118.45 194.2L118.9 173.75C118.98 170.1 119.05 166.36 117.9 162.87C116.75 159.38 114.31 156.12 110.8 155.1C107.29 154.08 102.89 156.01 102.09 159.58C101.76 161.06 102.09 162.58 101.92 164.13C101.75 165.68 101.05 167.32 99.58 167.72C98.11 168.12 96.63 167.07 95.58 165.98C91.81 162.23 89.29 157.43 86.94 152.67C84.59 147.91 82.3 143.02 78.94 138.94C75.58 134.86 70.78 131.6 65.47 131.22C60.16 130.84 54.47 133.99 53.04 139.12C51.61 144.25 54.59 149.53 57.84 153.75C62.6811 160.03 68.4074 165.574 74.84 170.21C76 171.05 77.25 171.95 77.67 173.31C78.44 175.76 76.06 178.15 73.61 178.92C70.83 179.78 67.84 179.46 64.95 179.75C62.06 180.04 58.95 181.25 57.76 183.93C56.19 187.65 59.3 191.61 62.37 194.23C68.5368 199.457 75.5465 203.6 83.1 206.48C85.81 207.48 88.67 208.41 90.84 210.33C93.01 212.25 94.28 215.56 92.91 218.12C91.5401 220.68 88.12 221.45 85.27 220.89C82.42 220.33 79.89 218.75 77.19 217.7C72.13 215.7 65.54 215.97 62.19 220.27C60.01 223.09 59.75 227.07 60.79 230.49C61.9814 233.867 63.8419 236.969 66.26 239.61C74.2195 249.322 84.603 256.76 96.36 261.17C108.11 265.39 119.04 266.65 130.85 262.58" fill="#EBEBEB"/>
<path d="M125.27 248.7C121.743 236.644 117.522 224.801 112.63 213.23C111.35 210.137 110.087 207.09 108.84 204.09C107.58 201.09 106.34 198.09 104.95 195.3C102.245 189.868 99.2403 184.59 95.95 179.49C92.86 174.6 89.73 170.07 86.79 165.85C83.85 161.63 80.99 157.77 78.26 154.34C73.9686 148.912 69.2538 143.833 64.16 139.15C62.36 137.49 60.92 136.24 59.94 135.41L58.81 134.47L58.42 134.17C58.42 134.17 58.53 134.29 58.78 134.52L59.87 135.52C60.87 136.38 62.24 137.64 64.02 139.32C69.0546 144.051 73.7277 149.152 78 154.58C80.71 158.01 83.52 161.9 86.46 166.11C89.4 170.32 92.46 174.88 95.57 179.77C98.8279 184.859 101.802 190.124 104.48 195.54C105.87 198.36 107.1 201.3 108.35 204.31C109.6 207.32 110.86 210.31 112.14 213.44C117.026 224.991 121.252 236.81 124.8 248.84" fill="#E0E0E0"/>
<path d="M104.81 195.25C104.975 194.741 105.095 194.219 105.17 193.69C105.37 192.69 105.62 191.21 105.9 189.39C106.47 185.76 107.1 180.71 107.77 175.15C108.44 169.59 109.15 164.55 109.77 160.94C110.09 159.13 110.37 157.67 110.57 156.66C110.698 156.144 110.785 155.619 110.83 155.09C110.626 155.584 110.469 156.097 110.36 156.62C110.09 157.62 109.76 159.06 109.36 160.87C108.61 164.47 107.84 169.51 107.17 175.08C106.5 180.65 105.92 185.59 105.47 189.34C105.24 191.08 105.05 192.53 104.91 193.65C104.829 194.179 104.795 194.715 104.81 195.25Z" fill="#E0E0E0"/>
<path d="M57.3 185.75C57.4608 185.791 57.6247 185.818 57.7901 185.83L59.2001 185.97C60.4201 186.09 62.2001 186.26 64.3701 186.53C68.7201 187.05 74.7201 187.99 81.2901 189.31C87.8601 190.63 93.7401 192.11 97.9701 193.31C100.09 193.89 101.79 194.4 102.97 194.75L104.33 195.15C104.488 195.207 104.653 195.243 104.82 195.26C104.681 195.169 104.529 195.099 104.37 195.05L103.04 194.55C101.88 194.13 100.2 193.55 98.0401 192.93C93.8301 191.64 87.9401 190.12 81.3601 188.78C74.7801 187.44 68.75 186.58 64.3601 186.16C62.1701 185.93 60.36 185.82 59.16 185.77H57.7401C57.5951 185.743 57.4469 185.736 57.3 185.75Z" fill="#E0E0E0"/>
<path d="M124.75 247.81C124.881 247.635 124.988 247.443 125.07 247.24C125.29 246.8 125.57 246.24 125.91 245.54C126.62 244.07 127.61 241.91 128.79 239.23C131.16 233.88 134.21 226.38 137.47 218.06C140.73 209.74 143.72 202.23 145.99 196.84L148.72 190.47L149.45 188.73C149.547 188.531 149.624 188.324 149.68 188.11C149.548 188.286 149.437 188.478 149.35 188.68L148.52 190.38C147.8 191.85 146.82 194.01 145.64 196.69C143.26 202.04 140.22 209.54 136.96 217.86C133.7 226.18 130.71 233.69 128.43 239.08L125.71 245.45L124.97 247.19C124.873 247.387 124.799 247.596 124.75 247.81Z" fill="#E0E0E0"/>
<path d="M61.75 226.73C61.9525 226.831 62.1633 226.915 62.38 226.98L64.21 227.6L71 229.85C76.7 231.76 84.54 234.49 93.2 237.53C101.86 240.57 109.72 243.24 115.46 245.06C118.32 245.96 120.65 246.68 122.27 247.14L124.13 247.66C124.343 247.737 124.565 247.787 124.79 247.81C124.59 247.704 124.379 247.62 124.16 247.56L122.33 246.93L115.58 244.68C109.88 242.78 102.04 240.05 93.38 237.01C84.72 233.97 76.86 231.3 71.13 229.48C68.26 228.57 65.93 227.86 64.31 227.4L62.45 226.87C62.2231 226.796 61.9881 226.749 61.75 226.73Z" fill="#E0E0E0"/>
<path d="M131.82 44.6001H75.4001C71.512 44.6001 68.3601 47.752 68.3601 51.6401V79.5101C68.3601 83.3982 71.512 86.5501 75.4001 86.5501H131.82C135.708 86.5501 138.86 83.3982 138.86 79.5101V51.6401C138.86 47.752 135.708 44.6001 131.82 44.6001Z" fill="#E0E0E0"/>
<path d="M111.24 85.2202L127.91 100.02L129.28 85.4802" fill="#E0E0E0"/>
<path d="M94.4401 66.1801C94.4401 66.993 94.199 67.7876 93.7474 68.4635C93.2958 69.1393 92.6539 69.6661 91.9029 69.9772C91.1519 70.2883 90.3255 70.3697 89.5283 70.2111C88.731 70.0525 87.9987 69.6611 87.4239 69.0863C86.8491 68.5115 86.4577 67.7792 86.2991 66.9819C86.1405 66.1846 86.2219 65.3582 86.5329 64.6072C86.844 63.8562 87.3708 63.2143 88.0467 62.7627C88.7226 62.3111 89.5172 62.0701 90.3301 62.0701C91.4201 62.0701 92.4655 62.5031 93.2363 63.2739C94.0071 64.0446 94.4401 65.09 94.4401 66.1801Z" fill="white"/>
<path d="M108.56 66.1801C108.56 66.9934 108.319 67.7884 107.867 68.4645C107.415 69.1406 106.772 69.6674 106.021 69.9782C105.269 70.289 104.442 70.3698 103.645 70.2104C102.847 70.051 102.115 69.6585 101.54 69.0827C100.966 68.5069 100.575 67.7737 100.418 66.9758C100.26 66.1778 100.343 65.3511 100.656 64.6003C100.968 63.8495 101.497 63.2083 102.174 62.7579C102.851 62.3075 103.647 62.0681 104.46 62.0701C104.999 62.0701 105.533 62.1765 106.031 62.3831C106.529 62.5898 106.982 62.8927 107.363 63.2745C107.744 63.6563 108.045 64.1094 108.251 64.608C108.456 65.1066 108.561 65.6408 108.56 66.1801Z" fill="white"/>
<path d="M122.69 66.1801C122.69 66.9934 122.449 67.7884 121.997 68.4645C121.545 69.1406 120.902 69.6674 120.151 69.9782C119.399 70.289 118.572 70.3698 117.775 70.2104C116.977 70.051 116.245 69.6585 115.67 69.0827C115.096 68.5069 114.705 67.7737 114.548 66.9758C114.39 66.1778 114.473 65.3511 114.786 64.6003C115.098 63.8495 115.627 63.2083 116.304 62.7579C116.981 62.3075 117.777 62.0681 118.59 62.0701C119.678 62.0727 120.721 62.5069 121.49 63.2774C122.258 64.0479 122.69 65.0918 122.69 66.1801Z" fill="white"/>
<path d="M336.025 89.6016L321.981 125.309L374.961 146.146L389.005 110.439L336.025 89.6016Z" fill="#EBEBEB"/>
<path d="M389 110.9C388.785 111.022 388.557 111.119 388.32 111.19L386.32 111.9L379 114.43L354.69 122.62L354.49 122.69L354.38 122.5L354.13 122.06L341.21 99.4901C339.61 96.6301 338.29 94.3001 337.35 92.6201L336.35 90.7401C336.218 90.5285 336.107 90.304 336.02 90.0701C336.18 90.2628 336.32 90.4704 336.44 90.6901L337.55 92.5201C338.55 94.1801 339.88 96.5201 341.55 99.3101L354.55 121.8L354.8 122.25L354.5 122.13L378.85 114.13L386.24 111.75L388.24 111.13C388.487 111.034 388.741 110.957 389 110.9Z" fill="#E0E0E0"/>
<path d="M322 125.78C321.93 125.66 327.84 122.33 335.19 118.35C342.54 114.37 348.57 111.24 348.64 111.35C348.71 111.46 342.8 114.8 335.44 118.78C328.08 122.76 322 125.91 322 125.78Z" fill="#E0E0E0"/>
<path d="M366.39 117.85C366.52 117.85 368.55 124.22 370.91 132.16C373.27 140.1 375.08 146.58 374.91 146.62C374.74 146.66 372.75 140.25 370.39 132.31C368.03 124.37 366.25 117.89 366.39 117.85Z" fill="#E0E0E0"/>
<path d="M468.1 466.42C468.1 466.56 370.45 466.68 250.01 466.68C129.57 466.68 31.9 466.56 31.9 466.42C31.9 466.28 129.53 466.16 250.01 466.16C370.49 466.16 468.1 466.27 468.1 466.42Z" fill="#263238"/>
<path d="M257.9 258.92C265.024 258.92 270.8 253.144 270.8 246.02C270.8 238.895 265.024 233.12 257.9 233.12C250.776 233.12 245 238.895 245 246.02C245 253.144 250.776 258.92 257.9 258.92Z" fill="#E74779"/>
<path d="M302.3 258.92C309.424 258.92 315.2 253.144 315.2 246.02C315.2 238.895 309.424 233.12 302.3 233.12C295.176 233.12 289.4 238.895 289.4 246.02C289.4 253.144 295.176 258.92 302.3 258.92Z" fill="#E74779"/>
<path d="M388.16 179.27C388.41 179.218 388.666 179.201 388.92 179.22C389.67 179.223 390.418 179.307 391.15 179.47C392.366 179.724 393.536 180.162 394.62 180.77C396.126 181.614 397.445 182.753 398.5 184.12C399.858 185.863 400.737 187.932 401.05 190.12C401.144 190.732 401.198 191.35 401.21 191.97C401.21 192.59 401.21 193.21 401.21 193.85C401.21 195.13 401.21 196.47 401.21 197.85C401.26 203.4 401.3 209.78 401.36 216.93C401.43 231.24 401.51 248.64 401.61 268.67C401.61 273.677 401.63 278.843 401.67 284.17C401.67 286.837 401.67 289.54 401.67 292.28C401.67 293.65 401.67 295.03 401.67 296.42C401.67 297.11 401.67 297.81 401.67 298.51C401.658 299.267 401.591 300.022 401.47 300.77C400.952 303.879 399.375 306.713 397.005 308.791C394.636 310.869 391.62 312.063 388.47 312.17L370.25 312.23L371.33 311.23C370.15 324.04 368.91 337.57 367.61 351.61L367.41 353.8L365.71 352.4L316.8 312.1L317.6 312.38L217.38 312.43H193.85C193.05 312.43 192.32 312.43 191.47 312.43C189.319 312.381 187.209 311.829 185.309 310.818C183.41 309.807 181.773 308.366 180.53 306.61C179.54 305.216 178.811 303.654 178.38 302C178.01 300.394 177.858 298.746 177.93 297.1C177.93 294.033 177.93 290.973 177.93 287.92C177.93 281.833 177.93 275.79 177.93 269.79C177.93 245.79 177.98 222.69 178 200.66C178 197.91 178 195.17 178 192.46C177.961 190.99 178.147 189.524 178.55 188.11C178.96 186.687 179.591 185.337 180.42 184.11C182.085 181.692 184.478 179.867 187.25 178.9C188.609 178.415 190.038 178.155 191.48 178.13C192.84 178.13 194.11 178.13 195.43 178.13L225.79 178.19L280.28 178.35L359.19 178.76L380.64 179.01L386.22 179.14C386.856 179.126 387.492 179.17 388.12 179.27C387.493 179.376 386.856 179.42 386.22 179.4L380.64 179.53L359.19 179.78L280.28 180.19L225.79 180.35L195.43 180.41C194.14 180.41 192.79 180.41 191.53 180.41C190.329 180.431 189.139 180.651 188.01 181.06C185.714 181.871 183.736 183.391 182.36 185.4C180.969 187.463 180.269 189.914 180.36 192.4C180.36 195.11 180.36 197.85 180.36 200.6C180.36 222.6 180.41 245.75 180.44 269.73C180.44 275.73 180.44 281.773 180.44 287.86V297.04C180.367 298.471 180.495 299.905 180.82 301.3C181.343 303.332 182.422 305.179 183.936 306.632C185.45 308.086 187.338 309.089 189.39 309.53C190.075 309.673 190.771 309.757 191.47 309.78C192.18 309.78 193.01 309.78 193.78 309.78H217.5L317.72 309.83H318.17L318.52 310.12L367.32 350.55L365.41 351.34C366.76 337.34 368.06 323.78 369.3 310.98L369.39 309.98H370.39H388.55C391.23 309.9 393.8 308.896 395.823 307.137C397.846 305.378 399.199 302.973 399.65 300.33C399.752 299.691 399.809 299.046 399.82 298.4C399.82 297.7 399.82 297 399.82 296.31C399.82 294.92 399.82 293.54 399.82 292.17C399.82 289.43 399.82 286.727 399.82 284.06C399.82 278.727 399.84 273.56 399.88 268.56C399.98 248.56 400.06 231.13 400.13 216.82C400.19 209.67 400.23 203.29 400.28 197.74C400.28 196.36 400.28 195.02 400.28 193.74C400.28 193.1 400.28 192.48 400.28 191.86C400.279 191.278 400.242 190.697 400.17 190.12C399.913 188.06 399.131 186.101 397.9 184.43C396.929 183.097 395.701 181.972 394.29 181.12C393.263 180.494 392.152 180.02 390.99 179.71C389.19 179.31 388.16 179.37 388.16 179.27Z" fill="#E74779"/>
<path d="M110.65 243.47H305.43C308.984 243.47 312.392 244.882 314.905 247.395C317.418 249.908 318.83 253.316 318.83 256.87V361.93C318.83 365.484 317.418 368.892 314.905 371.405C312.392 373.918 308.984 375.33 305.43 375.33H110.65C107.099 375.33 103.693 373.919 101.182 371.408C98.6707 368.897 97.26 365.491 97.26 361.94V256.87C97.2587 255.111 97.6041 253.368 98.2764 251.743C98.9487 250.117 99.9348 248.64 101.178 247.395C102.422 246.151 103.898 245.164 105.524 244.49C107.149 243.817 108.891 243.47 110.65 243.47Z" fill="#E74779"/>
<path d="M232.04 371.11L284.43 417.63L288.73 371.94" fill="#E74779"/>
<path d="M166.32 324.16C173.445 324.16 179.22 318.384 179.22 311.26C179.22 304.135 173.445 298.36 166.32 298.36C159.196 298.36 153.42 304.135 153.42 311.26C153.42 318.384 159.196 324.16 166.32 324.16Z" fill="white"/>
<path d="M210.72 324.16C217.844 324.16 223.62 318.384 223.62 311.26C223.62 304.135 217.844 298.36 210.72 298.36C203.596 298.36 197.82 304.135 197.82 311.26C197.82 318.384 203.596 324.16 210.72 324.16Z" fill="white"/>
<path d="M255.12 324.16C262.244 324.16 268.02 318.384 268.02 311.26C268.02 304.135 262.244 298.36 255.12 298.36C247.995 298.36 242.22 304.135 242.22 311.26C242.22 318.384 247.995 324.16 255.12 324.16Z" fill="white"/>
<g opacity="0.3">
<path d="M310.56 244L289.74 243.39H128.74C142.12 256.7 161.25 263.82 180.04 265.46C198.83 267.1 217.72 264.24 236.31 261.02C254.9 257.8 273.57 254.2 292.44 254.34C296.44 254.34 300.55 254.54 304.25 253.06C307.95 251.58 311.11 248 310.56 244Z" fill="black"/>
</g>
<path d="M346.7 258.92C353.824 258.92 359.6 253.144 359.6 246.02C359.6 238.895 353.824 233.12 346.7 233.12C339.576 233.12 333.8 238.895 333.8 246.02C333.8 253.144 339.576 258.92 346.7 258.92Z" fill="#E74779"/>
<path d="M235.53 56.3401C230.334 56.4188 225.296 58.1396 221.138 61.2562C216.979 64.3727 213.914 68.725 212.38 73.6901C210.92 78.8201 211.21 84.2801 210.27 89.5401C209.33 94.8001 206.68 100.3 201.69 102.2C198.44 103.43 194.69 102.92 191.49 104.2C189.985 104.803 188.655 105.775 187.623 107.025C186.59 108.276 185.888 109.765 185.581 111.357C185.273 112.949 185.37 114.593 185.863 116.138C186.355 117.683 187.228 119.08 188.4 120.2C186.423 121.903 185.098 124.239 184.65 126.81C184.202 129.38 184.659 132.026 185.944 134.298C187.228 136.569 189.26 138.325 191.693 139.266C194.127 140.207 196.812 140.276 199.29 139.46C197.44 142.46 198.05 146.46 200.22 149.2C202.531 151.856 205.791 153.501 209.3 153.78C212.774 154.04 216.268 153.726 219.64 152.85C227.22 151.17 234.82 148.47 240.52 143.2C246.77 137.42 250.08 129.2 252.59 121.03C257.37 105.48 259.92 88.7301 256.01 72.9401" fill="#263238"/>
<path d="M200.68 143L192.25 161.43L173.8 120.77C172.93 117.48 171.95 113.77 171.75 113.03C171.453 111.892 171.348 110.713 171.44 109.54C171.501 108.084 171.764 106.644 172.22 105.26C172.77 104.03 171.54 102.78 170.48 103.38C169.42 103.98 167.83 107.38 167.88 111.65C167.93 115.92 153.06 105.72 150.65 108.14L152.45 122.44C154.08 123.93 158.68 128.04 161.24 130.31L178.64 173.61C179.615 176.275 181.333 178.605 183.59 180.325C185.847 182.045 188.55 183.082 191.378 183.315C194.207 183.547 197.042 182.965 199.55 181.637C202.058 180.309 204.133 178.29 205.53 175.82L216.74 156.06L200.68 143Z" fill="#FFBE9D"/>
<path d="M161.59 95.0001C161.663 94.9741 161.74 94.9637 161.817 94.9696C161.894 94.9755 161.969 94.9976 162.037 95.0344C162.105 95.0712 162.164 95.1219 162.211 95.1832C162.258 95.2445 162.292 95.315 162.31 95.3901L171.88 123.8C171.97 124.048 171.974 124.32 171.89 124.57C171.807 124.821 171.641 125.036 171.42 125.18L160.06 131.55C159.945 131.61 159.818 131.643 159.688 131.648C159.559 131.652 159.43 131.628 159.311 131.576C159.192 131.524 159.086 131.446 159.002 131.349C158.917 131.251 158.855 131.135 158.82 131.01L148.06 101.6C147.952 101.335 147.949 101.039 148.051 100.772C148.153 100.505 148.353 100.286 148.61 100.16L161.59 95.0001Z" fill="#263238"/>
<path d="M161.9 97.0901L170.7 122.43L159.45 128.43L149.78 101.9L161.9 97.0901Z" fill="#F5F5F5"/>
<path d="M151.93 103.62C152.27 104.49 152.83 105.89 153.18 106.76C153.221 106.862 153.281 106.955 153.358 107.034C153.436 107.112 153.528 107.174 153.63 107.216C153.731 107.258 153.84 107.279 153.95 107.278C154.06 107.277 154.169 107.254 154.27 107.21L160.27 104.7L162.34 105L161.76 103.91L162.44 103.63C162.542 103.59 162.635 103.529 162.714 103.452C162.792 103.374 162.854 103.282 162.896 103.18C162.938 103.079 162.959 102.97 162.958 102.86C162.957 102.75 162.934 102.641 162.89 102.54L161.67 99.69C161.584 99.4919 161.424 99.3357 161.223 99.2552C161.023 99.1747 160.799 99.1764 160.6 99.26L152.42 102.56C152.317 102.596 152.222 102.652 152.141 102.725C152.06 102.798 151.995 102.887 151.949 102.986C151.904 103.085 151.878 103.192 151.875 103.301C151.872 103.41 151.89 103.518 151.93 103.62Z" fill="#E0E0E0"/>
<path d="M157 118.6L158.25 121.73C158.291 121.831 158.351 121.923 158.427 122.001C158.504 122.078 158.595 122.14 158.696 122.182C158.796 122.223 158.904 122.245 159.013 122.245C159.122 122.244 159.23 122.222 159.33 122.18L165.33 119.67L167.4 119.97L166.82 118.88L167.5 118.6C167.602 118.559 167.695 118.499 167.774 118.422C167.852 118.344 167.914 118.252 167.956 118.15C167.998 118.049 168.019 117.94 168.018 117.83C168.017 117.72 167.994 117.611 167.95 117.51L166.73 114.67C166.689 114.571 166.63 114.482 166.555 114.406C166.479 114.331 166.39 114.271 166.291 114.23C166.193 114.189 166.087 114.168 165.981 114.168C165.874 114.168 165.768 114.189 165.67 114.23L157.48 117.53C157.377 117.568 157.283 117.625 157.204 117.7C157.124 117.775 157.06 117.864 157.015 117.964C156.97 118.064 156.946 118.171 156.943 118.28C156.941 118.39 156.96 118.498 157 118.6Z" fill="#E0E0E0"/>
<path d="M164 107.16C164.38 108.01 165 109.4 165.36 110.25C165.404 110.35 165.428 110.458 165.43 110.568C165.431 110.678 165.411 110.786 165.37 110.888C165.329 110.99 165.268 111.082 165.191 111.16C165.114 111.237 165.021 111.299 164.92 111.34L158.92 113.84L157.69 115.53L157.31 114.34L156.64 114.64C156.54 114.683 156.432 114.706 156.323 114.707C156.213 114.708 156.105 114.687 156.004 114.646C155.903 114.605 155.81 114.545 155.732 114.468C155.655 114.392 155.593 114.301 155.55 114.2L154.37 111.33C154.29 111.13 154.291 110.906 154.373 110.706C154.455 110.506 154.612 110.346 154.81 110.26L162.9 106.74C163 106.694 163.107 106.668 163.217 106.664C163.327 106.66 163.436 106.678 163.539 106.717C163.642 106.756 163.735 106.816 163.814 106.892C163.894 106.968 163.957 107.059 164 107.16Z" fill="#E0E0E0"/>
<path d="M150.65 108.85C152.58 109.17 154.95 109.36 156.88 109.68C157.437 109.728 157.975 109.906 158.45 110.2C158.68 110.356 158.849 110.586 158.929 110.852C159.009 111.118 158.995 111.403 158.89 111.66C158.58 112.22 157.82 112.26 157.18 112.24C155.76 112.24 154.18 112.5 152.76 112.45C154.58 112.61 156.26 112.76 158.29 113C158.721 113.042 159.125 113.229 159.436 113.531C159.746 113.832 159.945 114.231 160 114.66C159.968 115.023 159.81 115.364 159.552 115.622C159.294 115.88 158.953 116.039 158.59 116.07C157.844 116.122 157.096 116.122 156.35 116.07C156.35 116.07 153.42 116.07 153.29 116.49C155.12 116.49 157.53 116.87 159.36 117.04C159.86 117.04 160.08 117.76 160.2 118.25C160.273 118.491 160.261 118.749 160.166 118.982C160.071 119.215 159.9 119.408 159.68 119.53C159.448 119.606 159.203 119.634 158.96 119.61C156.59 119.54 155.36 119.69 152.96 119.61" fill="#FFBE9D"/>
<path d="M194.54 174.59C194.724 172.305 194.643 170.007 194.3 167.74C193.784 165.504 193.009 163.336 191.99 161.28C192.474 161.772 192.87 162.344 193.16 162.97C193.943 164.434 194.5 166.009 194.81 167.64C195.133 169.287 195.197 170.974 195 172.64C194.963 173.312 194.808 173.972 194.54 174.59Z" fill="#EB996E"/>
<path d="M159.8 117.34C158.42 117.441 157.032 117.367 155.67 117.12C154.54 117.01 153.5 116.78 152.81 116.78C152.429 116.804 152.057 116.91 151.72 117.09C151.72 117.09 151.72 116.95 151.9 116.79C152.145 116.574 152.454 116.444 152.78 116.42C153.767 116.39 154.754 116.45 155.73 116.6C157.112 116.68 158.478 116.929 159.8 117.34Z" fill="#EB996E"/>
<path d="M159.15 113.19C157.783 113.292 156.409 113.221 155.06 112.98C153.94 112.87 152.91 112.63 152.24 112.65C151.57 112.67 151.24 113.06 151.18 113C151.12 112.94 151.37 112.43 152.18 112.29C152.625 112.23 153.075 112.23 153.52 112.29L155.1 112.46C156.475 112.534 157.836 112.779 159.15 113.19Z" fill="#EB996E"/>
<path d="M216.21 198.86C216.21 198.86 155.35 194.26 137.74 208.04C120.13 221.82 128.56 244.04 128.56 244.04H228.08L231.9 198.14L216.21 198.86Z" fill="#263238"/>
<path d="M227.66 230.47C227.362 230.477 227.064 230.457 226.77 230.41C226.19 230.34 225.33 230.26 224.24 230.11C222.04 229.83 218.86 229.38 214.95 228.72C204.77 226.969 194.7 224.632 184.79 221.72C179 220 173.5 218.29 168.43 217C163.95 215.842 159.369 215.115 154.75 214.83C151.636 214.658 148.513 214.839 145.44 215.37C144.34 215.51 143.52 215.78 142.95 215.88C142.661 215.957 142.367 216.014 142.07 216.05C142.346 215.938 142.63 215.848 142.92 215.78C143.735 215.533 144.563 215.33 145.4 215.17C148.483 214.555 151.63 214.317 154.77 214.46C159.418 214.695 164.03 215.392 168.54 216.54C173.64 217.77 179.15 219.54 184.94 221.21C194.829 224.113 204.863 226.5 215 228.36C218.89 229.06 222.06 229.57 224.24 229.91L226.76 230.3C227.36 230.4 227.66 230.46 227.66 230.47Z" fill="#455A64"/>
<path d="M170.22 216.76C168.512 215.329 166.681 214.051 164.75 212.94C162.737 211.98 160.642 211.203 158.49 210.62C159.164 210.572 159.841 210.644 160.49 210.83C162.063 211.172 163.583 211.724 165.01 212.47C166.433 213.22 167.751 214.155 168.93 215.25C169.442 215.677 169.878 216.188 170.22 216.76Z" fill="#455A64"/>
<path d="M260.26 193.13C260.26 193.13 204.59 194.64 186.98 208.42C169.37 222.2 177.8 244.42 177.8 244.42L282.2 246V232.55L268.66 231.09L268.56 230.47C273.81 224.72 269.81 204.68 261.07 194.11L260.26 193.13Z" fill="#263238"/>
<path d="M275.89 232C275.592 231.999 275.294 231.976 275 231.93C274.42 231.87 273.57 231.78 272.47 231.64C270.27 231.36 267.09 230.91 263.19 230.24C253.006 228.496 242.932 226.159 233.02 223.24C227.22 221.52 221.74 219.78 216.66 218.53C212.187 217.364 207.613 216.627 203 216.33C199.886 216.157 196.763 216.339 193.69 216.87C192.59 217.01 191.77 217.29 191.2 217.39C190.912 217.467 190.617 217.521 190.32 217.55C190.595 217.439 190.88 217.352 191.17 217.29C191.985 217.04 192.813 216.833 193.65 216.67C196.728 216.072 199.868 215.847 203 216C207.645 216.208 212.258 216.878 216.77 218C221.88 219.24 227.38 221 233.17 222.68C243.065 225.576 253.106 227.949 263.25 229.79C267.14 230.5 270.31 231.01 272.5 231.35L275.02 231.74C275.317 231.8 275.608 231.887 275.89 232Z" fill="#455A64"/>
<path d="M218.45 218.24C216.741 216.808 214.91 215.526 212.98 214.41C210.963 213.46 208.869 212.684 206.72 212.09C207.394 212.043 208.072 212.118 208.72 212.31C211.883 212.997 214.802 214.524 217.17 216.73C217.677 217.159 218.11 217.669 218.45 218.24Z" fill="#455A64"/>
<path d="M231.48 195.44C231.198 195.514 230.91 195.564 230.62 195.59L228.14 195.94C226 196.26 222.9 196.78 219.14 197.54C215.38 198.3 210.82 199.29 205.83 200.48C200.422 201.727 195.239 203.798 190.46 206.62C188.003 208.091 185.753 209.883 183.77 211.95C181.941 213.891 180.383 216.071 179.14 218.43C177.039 222.444 175.925 226.9 175.89 231.43C175.863 234.48 176.308 237.516 177.21 240.43C177.53 241.43 177.83 242.25 178.04 242.78C178.155 243.048 178.255 243.321 178.34 243.6C178.18 243.355 178.046 243.093 177.94 242.82C177.593 242.06 177.286 241.282 177.02 240.49C175.793 236.847 175.311 232.995 175.603 229.162C175.895 225.33 176.955 221.595 178.72 218.18C179.966 215.773 181.537 213.548 183.39 211.57C185.402 209.465 187.689 207.641 190.19 206.15C194.997 203.305 200.221 201.23 205.67 200C210.67 198.83 215.2 197.89 219.02 197.17C222.84 196.45 225.96 195.99 228.11 195.73C229.19 195.6 230.03 195.51 230.61 195.47C230.899 195.444 231.19 195.434 231.48 195.44Z" fill="#455A64"/>
<path d="M282.2 233.22L291.72 232.62L298.03 236.29L310.12 237.61C315.91 237.91 316.83 244.14 313.27 244.14C310.44 244.14 293.51 245.24 293.51 245.24L282.2 245.54V233.22Z" fill="#E0E0E0"/>
<path d="M297.67 236.31C297.256 236.669 296.751 236.904 296.21 236.99C294.916 237.314 293.552 237.23 292.308 236.748C291.064 236.267 289.999 235.411 289.26 234.3C288.915 233.877 288.7 233.363 288.64 232.82C288.71 232.82 288.96 233.34 289.56 234.09C290.327 235.063 291.342 235.812 292.498 236.259C293.653 236.705 294.908 236.834 296.13 236.63C297.08 236.48 297.64 236.23 297.67 236.31Z" fill="#455A64"/>
<path d="M312.78 244C312.78 244.06 312.3 244.18 311.62 243.83C311.206 243.572 310.85 243.231 310.574 242.828C310.299 242.425 310.11 241.97 310.02 241.49C309.735 240.556 309.825 239.549 310.27 238.68C310.65 238.02 311.11 237.83 311.14 237.89C311.17 237.95 310.85 238.23 310.6 238.89C310.298 239.703 310.274 240.592 310.53 241.42C310.684 242.265 311.139 243.025 311.81 243.56C312.34 243.92 312.79 243.94 312.78 244Z" fill="#455A64"/>
<path d="M219 117.37C219 117.37 207.13 143.46 207.83 147.89C208.53 152.32 212 170 212 170L214.51 198.76C214.51 198.76 259.34 193.33 260.27 193.33C261.2 193.33 258.87 169.54 258.87 169.54L265.7 123.82C265.7 123.82 262.57 117.59 248.45 115.43C240 114.12 219 117.37 219 117.37Z" fill="#E74779"/>
<path d="M251.77 152.53C252.342 157.181 253.777 161.685 256 165.81C256.86 167.36 257.66 169.54 259.08 170.6C261.3 172.27 264.49 170.7 266.5 168.79C268.51 166.88 270.55 164.46 273.32 164.36C275.09 164.3 276.73 165.22 278.46 165.59C280.19 165.96 282.46 165.39 282.83 163.67C282.942 162.654 282.702 161.631 282.15 160.77C277.908 152.341 274.659 143.449 272.47 134.27C271.547 131.663 270.368 129.154 268.95 126.78C267.95 125.09 265.37 122.64 262.83 120.58" fill="#E74779"/>
<path d="M227.46 115.64C215.12 116.07 205.87 124.23 203.24 130.11C200.15 137.01 197.75 145.35 194.13 151.99C193.317 153.227 192.688 154.574 192.26 155.99C192.06 156.707 192.084 157.468 192.326 158.172C192.569 158.876 193.02 159.489 193.62 159.93C195.48 161.03 198.18 159.6 199.89 160.93C200.83 161.65 201.11 162.93 201.89 163.83C202.89 164.9 204.46 165.12 205.89 165.28L214.22 166.18" fill="#E74779"/>
<path d="M249 141.1C248.798 140.789 248.637 140.453 248.52 140.1C248.163 139.162 247.914 138.185 247.78 137.19C247.291 133.862 247.966 130.466 249.691 127.578C251.417 124.69 254.087 122.486 257.25 121.34C258.19 120.991 259.166 120.749 260.16 120.62C260.524 120.563 260.896 120.563 261.26 120.62C259.94 120.895 258.643 121.269 257.38 121.74C254.349 122.932 251.799 125.095 250.129 127.89C248.459 130.686 247.763 133.957 248.15 137.19C248.341 138.512 248.625 139.818 249 141.1Z" fill="#263238"/>
<path d="M215.11 130.88C214.937 131.332 214.723 131.767 214.47 132.18C214.24 132.59 213.97 133.09 213.7 133.69C213.43 134.29 213.07 134.95 212.76 135.69C211.99 137.475 211.339 139.309 210.81 141.18C210.175 143.475 209.717 145.815 209.44 148.18C209.192 150.545 209.118 152.925 209.22 155.3C209.317 157.239 209.541 159.17 209.89 161.08C210.02 161.9 210.21 162.62 210.35 163.27C210.49 163.92 210.64 164.46 210.77 164.91C210.918 165.37 211.028 165.842 211.1 166.32C210.879 165.889 210.702 165.437 210.57 164.97C210.375 164.436 210.208 163.892 210.07 163.34C209.9 162.7 209.68 161.97 209.53 161.15C209.125 159.229 208.861 157.28 208.74 155.32C208.439 150.509 208.984 145.683 210.35 141.06C210.906 139.178 211.601 137.339 212.43 135.56C212.729 134.877 213.063 134.209 213.43 133.56C213.686 133.052 213.97 132.558 214.28 132.08C214.519 131.655 214.797 131.254 215.11 130.88Z" fill="#263238"/>
<path d="M282.1 160.14C282.1 160.14 282.1 160.25 282 160.43C281.857 160.693 281.664 160.924 281.43 161.11C280.517 161.748 279.389 162.003 278.29 161.82C276.89 161.66 275.44 160.82 273.75 160.52C272.827 160.402 271.889 160.49 271.004 160.777C270.119 161.064 269.308 161.543 268.63 162.18C267.06 163.44 265.78 164.97 264.27 166C263.57 166.519 262.775 166.896 261.93 167.11C261.19 167.258 260.433 167.305 259.68 167.25C258.592 167.202 257.533 166.882 256.6 166.32C256.352 166.153 256.133 165.947 255.95 165.71C255.843 165.537 255.793 165.447 255.8 165.44C256.083 165.698 256.388 165.933 256.71 166.14C257.639 166.616 258.666 166.869 259.71 166.88C260.425 166.908 261.141 166.844 261.84 166.69C262.625 166.47 263.361 166.103 264.01 165.61C265.43 164.61 266.68 163.08 268.32 161.77C269.117 161.12 270.015 160.606 270.98 160.25C271.902 159.928 272.893 159.858 273.85 160.05C275.65 160.44 277.06 161.27 278.35 161.45C279.377 161.663 280.447 161.485 281.35 160.95C281.638 160.717 281.89 160.445 282.1 160.14Z" fill="#FAFAFA"/>
<path d="M279.24 154.29C279.239 154.388 279.215 154.484 279.17 154.57C279.058 154.824 278.89 155.049 278.68 155.23C278.27 155.544 277.795 155.761 277.289 155.867C276.784 155.973 276.261 155.963 275.76 155.84C274.48 155.63 273.16 154.79 271.58 154.71C269.829 154.737 268.129 155.31 266.72 156.35C265.16 157.4 263.82 158.64 262.43 159.58C261.218 160.466 259.813 161.048 258.33 161.28C257.313 161.436 256.273 161.301 255.33 160.89C254.983 160.757 254.671 160.545 254.42 160.27C254.42 160.27 254.76 160.47 255.42 160.71C256.334 161.02 257.312 161.089 258.26 160.91C259.672 160.648 261.001 160.055 262.14 159.18C263.48 158.25 264.8 157 266.41 155.92C267.907 154.817 269.72 154.224 271.58 154.23C272.383 154.304 273.169 154.503 273.91 154.82C274.526 155.087 275.161 155.307 275.81 155.48C276.266 155.61 276.745 155.641 277.214 155.57C277.684 155.499 278.132 155.329 278.53 155.07C278.805 154.848 279.044 154.585 279.24 154.29Z" fill="#FAFAFA"/>
<path d="M209.18 161.89C209.18 161.89 209 162.16 208.46 162.28C208.083 162.339 207.697 162.318 207.328 162.218C206.96 162.118 206.616 161.942 206.32 161.7C205.512 160.953 204.878 160.038 204.46 159.02C204.243 158.438 203.904 157.91 203.466 157.47C203.028 157.03 202.501 156.689 201.92 156.47C200.657 156.27 199.365 156.338 198.13 156.67C197.048 156.933 195.913 156.881 194.86 156.52C194.505 156.381 194.181 156.173 193.908 155.906C193.635 155.64 193.418 155.322 193.27 154.97C193.08 154.46 193.18 154.15 193.2 154.16C193.22 154.17 193.2 154.45 193.45 154.89C193.793 155.49 194.339 155.948 194.99 156.18C195.991 156.458 197.049 156.458 198.05 156.18C199.35 155.809 200.717 155.734 202.05 155.96C202.761 156.151 203.394 156.56 203.86 157.13C204.258 157.642 204.593 158.199 204.86 158.79C205.236 159.764 205.8 160.655 206.52 161.41C207.038 161.864 207.712 162.101 208.4 162.07C208.664 162.029 208.925 161.969 209.18 161.89Z" fill="#FAFAFA"/>
<path d="M207.67 156C207.67 156 207.45 156.12 207.07 156C206.545 155.799 206.104 155.425 205.82 154.94C205.5 154.273 205.043 153.68 204.48 153.2C203.655 152.836 202.728 152.772 201.86 153.02C200.897 153.225 199.902 153.225 198.94 153.02C198.151 152.836 197.406 152.496 196.75 152.02C196.115 151.639 195.608 151.079 195.29 150.41C195.37 150.35 195.85 151.04 196.96 151.72C198.41 152.592 200.14 152.872 201.79 152.5C202.772 152.231 203.819 152.334 204.73 152.79C205.355 153.332 205.839 154.019 206.14 154.79C206.364 155.233 206.711 155.601 207.14 155.85C207.45 156 207.67 156 207.67 156Z" fill="#FAFAFA"/>
<path d="M254.66 161.17C254.66 161.17 254.03 161.04 252.9 160.78C251.77 160.52 250.13 160.13 248.09 159.78C247.09 159.6 245.95 159.41 244.75 159.26C243.479 159.078 242.192 159.028 240.91 159.11C239.508 159.301 238.153 159.745 236.91 160.42C235.59 161.08 234.26 161.88 232.82 162.59C231.42 163.324 229.886 163.767 228.31 163.89C226.847 163.949 225.384 163.787 223.97 163.41C221.655 162.691 219.297 162.12 216.91 161.7C215.3 161.458 213.656 161.613 212.12 162.15C211.579 162.395 211.052 162.669 210.54 162.97C210.54 162.97 210.64 162.85 210.88 162.65C211.242 162.381 211.63 162.149 212.04 161.96C213.593 161.337 215.28 161.12 216.94 161.33C219.356 161.699 221.742 162.24 224.08 162.95C225.452 163.296 226.866 163.444 228.28 163.39C229.786 163.255 231.251 162.824 232.59 162.12C234 161.43 235.33 160.63 236.68 159.96C237.979 159.271 239.392 158.821 240.85 158.63C242.167 158.557 243.487 158.624 244.79 158.83C246.01 159 247.13 159.21 248.15 159.42C250.15 159.85 251.82 160.29 252.94 160.61C253.5 160.78 253.94 160.91 254.22 161.02C254.5 161.13 254.67 161.15 254.66 161.17Z" fill="#FAFAFA"/>
<path d="M255.69 166.19C255.69 166.19 255.09 165.95 254.03 165.5C252.97 165.05 251.41 164.43 249.45 163.83C248.386 163.492 247.296 163.244 246.19 163.09C244.929 162.982 243.66 163.149 242.47 163.58C239.92 164.45 237.47 166.32 234.47 167.5C232.999 168.061 231.434 168.333 229.86 168.3C228.416 168.269 226.978 168.115 225.56 167.84C223.209 167.303 220.823 166.932 218.42 166.73C216.806 166.628 215.187 166.835 213.65 167.34C212.57 167.73 212.04 168.1 212.01 168.06C211.98 168.02 212.13 167.94 212.38 167.77C212.758 167.529 213.156 167.322 213.57 167.15C215.118 166.554 216.773 166.288 218.43 166.37C220.856 166.515 223.266 166.85 225.64 167.37C228.3 167.82 231.38 168.18 234.28 167.02C237.18 165.86 239.62 164.02 242.28 163.13C243.537 162.69 244.876 162.536 246.2 162.68C247.329 162.843 248.441 163.111 249.52 163.48C251.073 164.002 252.593 164.62 254.07 165.33C254.59 165.58 254.99 165.79 255.25 165.94C255.407 166.004 255.555 166.088 255.69 166.19Z" fill="#FAFAFA"/>
<path d="M242.33 164.4C242.33 164.4 242.08 164.48 241.61 164.52C240.943 164.575 240.273 164.558 239.61 164.47C238.62 164.353 237.647 164.121 236.71 163.78C235.567 163.356 234.479 162.795 233.47 162.11C232.473 161.4 231.563 160.574 230.76 159.65C230.113 158.892 229.559 158.06 229.11 157.17C228.794 156.579 228.542 155.955 228.36 155.31C228.24 154.86 228.18 154.6 228.22 154.59C228.26 154.58 228.6 155.59 229.43 157C229.916 157.833 230.482 158.617 231.12 159.34C231.92 160.21 232.808 160.994 233.77 161.68C234.743 162.345 235.786 162.901 236.88 163.34C237.783 163.687 238.717 163.945 239.67 164.11C241.29 164.38 242.33 164.3 242.33 164.4Z" fill="#263238"/>
<g opacity="0.3">
<path d="M228.25 155.67C228.93 159.39 230.35 163.1 233.06 165.74C235.77 168.38 239.96 169.74 243.48 168.33C243.865 168.225 244.219 168.028 244.511 167.756C244.804 167.484 245.026 167.146 245.16 166.77C245.204 166.313 245.095 165.854 244.848 165.466C244.602 165.078 244.233 164.784 243.8 164.63C242.92 164.356 242.001 164.231 241.08 164.26C238.456 164.085 235.921 163.242 233.714 161.813C231.507 160.383 229.702 158.413 228.47 156.09" fill="black"/>
</g>
<path d="M257.57 170.51C257.377 170.2 257.232 169.863 257.14 169.51C256.89 168.88 256.55 167.96 256.14 166.82C255.34 164.53 254.31 161.36 253.27 157.82C252.23 154.28 251.4 151.04 250.84 148.69C250.56 147.51 250.35 146.56 250.22 145.89C250.131 145.564 250.081 145.228 250.07 144.89C250.233 145.206 250.35 145.542 250.42 145.89C250.64 146.65 250.9 147.56 251.2 148.64C251.84 150.97 252.74 154.18 253.77 157.72C254.8 161.26 255.77 164.44 256.49 166.72C256.81 167.79 257.09 168.72 257.32 169.46C257.442 169.8 257.526 170.152 257.57 170.51Z" fill="#263238"/>
<path d="M212.43 199.14C212.43 199.14 221.07 189.88 228.63 188.06C236.19 186.24 263.27 176.67 263.27 176.67L261.56 171.28C263.302 171.095 264.919 170.285 266.11 169L267.86 167.26C270.24 164.66 273.11 163.26 277.27 164.67L279.89 165.45L282.62 173.45C283.256 175.316 283.472 177.299 283.252 179.258C283.031 181.217 282.38 183.102 281.345 184.78C280.31 186.457 278.916 187.885 277.264 188.96C275.612 190.036 273.743 190.732 271.79 191L212.43 199.14Z" fill="#FFBE9D"/>
<path d="M274.5 177.82C272.708 177.223 270.868 176.781 269 176.5C267.126 176.387 265.245 176.441 263.38 176.66C265.198 176.012 267.137 175.779 269.057 175.98C270.976 176.181 272.826 176.809 274.47 177.82H274.5Z" fill="#EB996E"/>
<path d="M213.73 72.5601C213 60.0001 229.36 51.1801 240.53 54.3301C251.02 57.3301 255.53 62.5101 257.22 69.5301C258.91 76.5501 258.86 84.1501 256.11 90.8401C254.75 94.1301 252.31 97.4801 248.77 97.8401" fill="#263238"/>
<path d="M247.22 64.8501C248.106 64.9428 248.926 65.3655 249.515 66.0343C250.104 66.7031 250.42 67.5691 250.4 68.4601L248.4 116.61C248.33 122.3 240.02 125.51 233.94 125.38C227.79 125.25 227.58 122.24 227.49 116.83C227.35 107.83 227.35 104.4 227.35 104.45C227.35 104.5 219.56 103.16 218 93.0001C217.2 88.0001 217.45 79.6901 217.88 72.9401C218.26 66.8601 222.29 59.3901 228.35 60.0401L247.22 64.8501Z" fill="#FFBE9D"/>
<path d="M220.46 79.5301C220.46 79.8673 220.589 80.1918 220.822 80.4358C221.055 80.6798 221.373 80.8246 221.71 80.8401C221.875 80.8537 222.042 80.834 222.199 80.7821C222.357 80.7303 222.502 80.6474 222.627 80.5383C222.752 80.4292 222.854 80.2961 222.927 80.147C222.999 79.9979 223.041 79.8357 223.05 79.6701C223.055 79.3303 222.928 79.0019 222.694 78.7552C222.46 78.5085 222.14 78.3631 221.8 78.3501C221.634 78.3378 221.468 78.3588 221.31 78.4118C221.152 78.4648 221.007 78.5487 220.882 78.6586C220.757 78.7685 220.656 78.9021 220.583 79.0518C220.511 79.2014 220.469 79.364 220.46 79.5301Z" fill="#263238"/>
<path d="M219.62 77.2601C219.78 77.4301 220.77 76.7101 222.16 76.7101C223.55 76.7101 224.59 77.4101 224.74 77.2401C224.89 77.0701 224.65 76.8601 224.2 76.5301C223.595 76.1118 222.875 75.8917 222.14 75.9001C221.421 75.8972 220.72 76.125 220.14 76.5501C219.69 76.8801 219.54 77.1901 219.62 77.2601Z" fill="#263238"/>
<path d="M234.13 79.5301C234.13 79.869 234.261 80.1949 234.496 80.4391C234.731 80.6834 235.051 80.8271 235.39 80.8401C235.555 80.8523 235.721 80.8316 235.878 80.7793C236.035 80.7269 236.18 80.6439 236.304 80.5351C236.429 80.4262 236.531 80.2937 236.604 80.1452C236.677 79.9968 236.72 79.8352 236.73 79.6701C236.733 79.3311 236.604 79.0041 236.371 78.758C236.138 78.5118 235.819 78.3656 235.48 78.3501C235.314 78.3378 235.147 78.3588 234.988 78.4116C234.83 78.4645 234.684 78.5482 234.558 78.658C234.433 78.7678 234.33 78.9014 234.257 79.0511C234.183 79.2008 234.14 79.3636 234.13 79.5301Z" fill="#263238"/>
<path d="M233.37 77.5302C233.53 77.7002 234.52 76.9702 235.91 76.9702C237.3 76.9702 238.34 77.6702 238.49 77.5002C238.64 77.3302 238.4 77.1202 237.95 76.7902C237.343 76.376 236.625 76.1563 235.89 76.1602C235.171 76.1573 234.47 76.3851 233.89 76.8102C233.44 77.1402 233.29 77.4502 233.37 77.5302Z" fill="#263238"/>
<path d="M228.29 87.9C227.554 87.6678 226.791 87.53 226.02 87.49C225.66 87.49 225.33 87.38 225.27 87.14C225.234 86.7713 225.314 86.4006 225.5 86.08L226.56 83.36C228.03 79.49 229.09 76.3 228.93 76.24C227.778 78.4648 226.798 80.7749 226 83.15C225.65 84.15 225.31 85.02 225 85.89C224.772 86.3193 224.708 86.817 224.82 87.29C224.869 87.4162 224.947 87.5291 225.048 87.6194C225.149 87.7098 225.269 87.7751 225.4 87.81C225.6 87.8609 225.804 87.891 226.01 87.9C226.767 87.9937 227.533 87.9937 228.29 87.9Z" fill="#263238"/>
<path d="M227.33 104.45C232.101 104.523 236.799 103.269 240.9 100.83C240.9 100.83 237.61 107.83 227.46 106.83L227.33 104.45Z" fill="#EB996E"/>
<path d="M228.88 91.2702C229.146 90.9351 229.494 90.6731 229.889 90.5087C230.284 90.3443 230.715 90.2829 231.14 90.3302C231.449 90.3587 231.75 90.4496 232.023 90.5974C232.296 90.7452 232.537 90.9469 232.73 91.1902C232.918 91.4215 233.029 91.7054 233.049 92.0027C233.069 92.3 232.996 92.5961 232.84 92.8502C232.617 93.103 232.324 93.283 231.997 93.3668C231.671 93.4506 231.327 93.4344 231.01 93.3202C230.348 93.0856 229.74 92.7219 229.22 92.2502C229.065 92.1367 228.93 91.9981 228.82 91.8402C228.771 91.7622 228.745 91.6722 228.745 91.5802C228.745 91.4882 228.771 91.3981 228.82 91.3202" fill="#EB996E"/>
<path d="M232.41 88.8701C232.18 88.8701 232.18 90.3701 230.88 91.4501C229.58 92.5301 227.96 92.3601 227.95 92.5701C227.94 92.7801 228.31 92.8701 228.95 92.8901C229.842 92.8991 230.709 92.5948 231.4 92.0301C232.059 91.4905 232.482 90.7159 232.58 89.8701C232.68 89.2301 232.51 88.8601 232.41 88.8701Z" fill="#263238"/>
<path d="M232.74 75.0801C232.88 75.4601 234.27 75.2801 235.91 75.4701C237.55 75.6601 238.91 76.1201 239.1 75.7801C239.2 75.6201 238.97 75.2601 238.43 74.8901C237.717 74.438 236.911 74.1544 236.072 74.0608C235.234 73.9673 234.385 74.0662 233.59 74.3501C233 74.6001 232.68 74.9001 232.74 75.0801Z" fill="#263238"/>
<path d="M220.13 73.2201C220.38 73.5301 221.34 73.2201 222.5 73.2201C223.66 73.2201 224.64 73.4301 224.87 73.1001C224.97 72.9401 224.81 72.6201 224.38 72.3201C223.809 71.9528 223.138 71.7712 222.46 71.8001C221.778 71.8058 221.115 72.0302 220.57 72.4401C220.16 72.7301 220 73.0601 220.13 73.2201Z" fill="#263238"/>
<path d="M233.35 56.6902C229.903 56.8573 226.554 57.889 223.61 59.6902C221.956 60.5374 220.486 61.7034 219.285 63.121C218.084 64.5386 217.174 66.1798 216.61 67.9502C216.469 68.3159 216.403 68.7065 216.416 69.0984C216.43 69.4903 216.523 69.8753 216.69 70.2302C217.011 70.6382 217.464 70.9213 217.972 71.0309C218.479 71.1404 219.009 71.0694 219.47 70.8302C220.378 70.327 221.153 69.6139 221.73 68.7502C221.976 69.6862 222.528 70.5132 223.298 71.0996C224.068 71.6861 225.011 71.9984 225.979 71.9869C226.947 71.9754 227.883 71.6408 228.639 71.0362C229.394 70.4316 229.926 69.5918 230.15 68.6502C230.227 69.6218 230.675 70.5265 231.401 71.1764C232.127 71.8263 233.076 72.1715 234.05 72.1402C235.025 72.0567 235.954 71.6892 236.721 71.0831C237.489 70.4769 238.062 69.6589 238.37 68.7302C238.601 70.5045 239.208 72.2091 240.15 73.7302C240.632 74.4742 241.33 75.0525 242.151 75.3869C242.972 75.7213 243.876 75.7957 244.74 75.6002C244.372 77.0909 244.396 78.6515 244.81 80.1302C245.34 81.5702 247.81 112.59 249.27 112.13C250.73 111.67 250.33 80.1302 250.66 78.6702C251.377 75.8972 251.74 73.0444 251.74 70.1802C251.835 67.2348 250.883 64.3512 249.051 62.0422C247.22 59.7332 244.63 58.1486 241.74 57.5702C238.85 56.9051 235.883 56.6326 232.92 56.7602" fill="#263238"/>
<path d="M198.07 96.8301C198.07 96.8301 197.96 96.6501 197.67 96.3701C197.253 95.9579 196.718 95.6853 196.14 95.5901C195.692 95.5038 195.232 95.5099 194.786 95.6079C194.341 95.7059 193.92 95.8938 193.55 96.1601C193.096 96.5514 192.75 97.0535 192.547 97.6176C192.344 98.1818 192.29 98.7889 192.39 99.3801C192.48 100.073 192.742 100.733 193.15 101.3C193.614 101.898 194.218 102.373 194.91 102.68C195.681 103.016 196.514 103.19 197.355 103.19C198.196 103.19 199.029 103.016 199.8 102.68C201.524 101.901 203.011 100.68 204.11 99.1401C205.326 97.5024 206.262 95.6742 206.88 93.7301C208.2 89.7301 208.56 85.6701 209.11 82.0301C209.52 78.7765 210.382 75.5959 211.67 72.5801C212.557 70.537 213.873 68.7089 215.53 67.2201C215.991 66.8192 216.482 66.4548 217 66.1301C217.171 66.0124 217.356 65.9151 217.55 65.8401C217.55 65.8401 216.82 66.3001 215.67 67.3301C214.089 68.8438 212.84 70.6689 212 72.6901C210.771 75.6889 209.957 78.8413 209.58 82.0601C209.05 85.6901 208.71 89.7701 207.36 93.8501C206.728 95.8498 205.764 97.7292 204.51 99.4101C203.347 101.011 201.785 102.279 199.98 103.09C199.15 103.452 198.255 103.639 197.35 103.639C196.445 103.639 195.55 103.452 194.72 103.09C193.969 102.742 193.316 102.213 192.82 101.55C192.377 100.926 192.098 100.2 192.01 99.4401C191.913 98.7903 191.987 98.1264 192.226 97.5142C192.464 96.9021 192.859 96.3629 193.37 95.9501C193.773 95.6697 194.231 95.4769 194.713 95.3839C195.195 95.2909 195.691 95.2998 196.17 95.4101C196.775 95.5376 197.324 95.8525 197.74 96.3101C197.886 96.458 197.998 96.6353 198.07 96.8301Z" fill="#263238"/>
<path d="M251.83 113.45C251.83 113.39 252.42 113.13 253.4 112.45C254.762 111.463 255.925 110.228 256.83 108.81C258.169 106.705 259.045 104.339 259.4 101.87C259.777 98.8295 259.645 95.7474 259.01 92.75C258.39 89.55 257.47 86.56 256.68 83.83C255.89 81.1 255.21 78.61 254.81 76.49C254.483 74.8146 254.289 73.116 254.23 71.41C254.23 70.81 254.23 70.34 254.23 70.02C254.22 69.8584 254.236 69.6961 254.28 69.54C254.33 69.54 254.28 70.21 254.41 71.4C254.54 73.0813 254.783 74.7519 255.14 76.4C255.59 78.49 256.28 80.95 257.14 83.67C258.088 86.6269 258.883 89.6309 259.52 92.67C260.174 95.7197 260.292 98.8598 259.87 101.95C259.489 104.481 258.557 106.898 257.14 109.03C256.188 110.465 254.953 111.69 253.51 112.63C253.12 112.886 252.709 113.107 252.28 113.29C252.135 113.357 251.985 113.41 251.83 113.45Z" fill="#263238"/>
<path d="M253.64 106.94C253.531 107.02 253.409 107.081 253.28 107.12C252.924 107.249 252.555 107.34 252.18 107.39C250.765 107.535 249.339 107.238 248.1 106.54C246.267 105.485 244.877 103.801 244.19 101.8C243.365 99.3845 243.095 96.8143 243.4 94.2801C243.64 91.6001 244.13 89.1101 244.35 86.8201C244.57 84.5301 244.7 82.4601 244.74 80.7201C244.78 78.9801 244.74 77.5701 244.74 76.5901C244.697 76.0877 244.697 75.5825 244.74 75.0801C244.851 75.5729 244.915 76.0752 244.93 76.5801C245.01 77.5801 245.09 78.9701 245.1 80.7301C245.109 82.7801 245.016 84.8294 244.82 86.8701C244.62 89.1801 244.15 91.6901 243.91 94.3301C243.612 96.7868 243.858 99.2789 244.63 101.63C245.265 103.544 246.559 105.17 248.28 106.22C249.445 106.922 250.79 107.27 252.15 107.22C253.12 107.11 253.62 106.89 253.64 106.94Z" fill="#263238"/>
<path d="M188.23 116.08C188.222 115.74 188.277 115.401 188.39 115.08C188.704 114.194 189.284 113.426 190.05 112.88C191.257 112 192.698 111.499 194.19 111.44C195.91 111.28 197.86 111.53 199.97 111.44C202.277 111.232 204.502 110.478 206.46 109.24C208.697 107.798 210.61 105.909 212.08 103.69C213.687 101.226 214.817 98.4817 215.41 95.6001C216.046 92.4958 216.311 89.3269 216.2 86.1601C216.2 82.9001 215.75 79.7401 215.56 76.6401C215.268 73.6559 215.457 70.6443 216.12 67.7201C216.735 65.228 218.043 62.9608 219.892 61.1806C221.741 59.4004 224.056 58.1799 226.57 57.6601C228.495 57.2775 230.481 57.3356 232.38 57.8301C233.801 58.1986 235.152 58.7964 236.38 59.6001C237.155 60.103 237.873 60.6899 238.52 61.3501C238.75 61.5801 238.89 61.7701 239 61.8901C239.11 62.0101 239.16 62.0801 239.15 62.0901C238.274 61.2177 237.309 60.4401 236.27 59.7701C235.034 59.007 233.683 58.4465 232.27 58.1101C230.41 57.6609 228.473 57.6302 226.6 58.0201C224.34 58.5144 222.247 59.5898 220.53 61.1401C218.546 62.9187 217.151 65.2592 216.53 67.8501C215.899 70.7248 215.723 73.6809 216.01 76.6101C216.22 79.6801 216.62 82.8601 216.68 86.1501C216.781 89.3578 216.505 92.5663 215.86 95.7101C215.249 98.6524 214.085 101.452 212.43 103.96C210.915 106.227 208.943 108.152 206.64 109.61C204.619 110.869 202.324 111.624 199.95 111.81C197.77 111.93 195.84 111.65 194.16 111.81C192.729 111.854 191.34 112.309 190.16 113.12C189.402 113.627 188.816 114.353 188.48 115.2C188.27 115.74 188.27 116.08 188.23 116.08Z" fill="#455A64"/>
<path d="M238.36 54.5601C238.36 54.5101 238.85 54.7301 239.36 55.3401C240.057 56.1522 240.481 57.1635 240.57 58.2301C240.661 59.2981 240.416 60.3678 239.87 61.2901C239.44 61.9801 239.03 62.2901 238.99 62.2901C238.95 62.2901 239.23 61.8501 239.54 61.1601C239.963 60.2787 240.142 59.3002 240.06 58.326C239.977 57.3519 239.635 56.4176 239.07 55.6201C238.67 54.9401 238.31 54.6201 238.36 54.5601Z" fill="#455A64"/>
<path d="M258.33 80.4902C258.205 80.0921 258.114 79.6839 258.06 79.2702C257.91 78.4702 257.7 77.3302 257.39 75.9202C257.08 74.5102 256.71 72.8302 256.21 71.0002C255.96 70.0802 255.68 69.1202 255.33 68.1502C254.999 67.1565 254.513 66.2215 253.89 65.3802C252.697 63.7283 251.065 62.4431 249.18 61.6702C247.638 61.0511 245.952 60.888 244.32 61.2002C243.212 61.3954 242.157 61.8176 241.22 62.4402C240.9 62.7008 240.566 62.9445 240.22 63.1702C240.22 63.1702 240.28 63.0702 240.42 62.9102C240.632 62.6777 240.867 62.4667 241.12 62.2802C242.045 61.5697 243.118 61.0775 244.26 60.8402C245.963 60.4596 247.742 60.5918 249.37 61.2202C251.353 62.006 253.07 63.3417 254.32 65.0702C254.975 65.9518 255.482 66.9348 255.82 67.9802C256.17 68.9802 256.44 69.9802 256.69 70.8702C257.16 72.7302 257.51 74.4202 257.76 75.8702C258.01 77.3202 258.19 78.4502 258.27 79.2602C258.343 79.6658 258.364 80.0793 258.33 80.4902Z" fill="#455A64"/>
<path d="M239.4 62.6301C238.304 62.5093 237.229 62.2471 236.2 61.8501C235.085 61.4791 233.941 61.2015 232.78 61.0201C231.374 60.8161 229.938 60.9744 228.61 61.4801C227.282 61.9763 226.104 62.8063 225.19 63.8901C224.446 64.7675 223.891 65.7888 223.56 66.8901C223.292 67.9363 223.148 69.0103 223.13 70.0901C223.016 69.8113 222.961 69.5114 222.97 69.2101C222.921 68.3964 222.998 67.58 223.2 66.7901C223.492 65.5999 224.045 64.4897 224.82 63.5401C225.772 62.3687 227.017 61.4714 228.43 60.9401C229.839 60.4083 231.363 60.2532 232.85 60.4901C234.035 60.7144 235.197 61.0492 236.32 61.4901C238.22 62.2201 239.42 62.5601 239.4 62.6301Z" fill="#455A64"/>
<path d="M440.72 401.7C441.61 398.64 443.5 395.7 446.44 394.41C449.38 393.12 453.02 393.84 456.14 394.98C459.26 396.12 462.33 397.63 465.64 397.83C468.95 398.03 472.7 396.47 473.69 393.3C474.62 390.3 472.82 387.14 470.58 384.97C468.202 382.686 465.288 381.037 462.107 380.175C458.925 379.312 455.577 379.263 452.371 380.033C449.166 380.803 446.205 382.367 443.762 384.58C441.319 386.793 439.472 389.586 438.39 392.7" fill="#263238"/>
<path d="M414.46 415C409.6 410.38 409.84 402.34 412.27 396.08C414.7 389.82 419.99 385.03 425.9 381.86C431.674 378.831 438.059 377.149 444.576 376.939C451.093 376.73 457.573 377.998 463.53 380.65C460.614 380.775 457.773 381.612 455.256 383.089C452.739 384.565 450.622 386.636 449.09 389.12C446.43 393.55 445.83 398.92 443.63 403.6C441.149 408.871 436.742 412.991 431.316 415.112C425.89 417.232 419.858 417.192 414.46 415Z" fill="#455A64"/>
<path d="M412.13 387.26C406.74 380.91 406.02 370.71 406.82 362.42C407.62 354.13 409.53 345.78 408.22 337.55C407.45 332.68 405.56 328.03 404.92 323.13C404.28 318.23 405.19 312.71 408.98 309.55C413.34 305.92 420.2 306.78 424.73 310.18C429.26 313.58 431.89 318.95 433.81 324.28C438 336 439.57 349 436.11 361C432.65 373 424.52 383.67 412.59 387.28" fill="#455A64"/>
<path d="M409.54 439.41C409.514 439.167 409.514 438.923 409.54 438.68C409.54 438.2 409.54 437.49 409.54 436.58C409.6 434.75 409.77 432.11 410.18 428.88C410.65 425.084 411.338 421.318 412.24 417.6C413.355 413.035 415.084 408.641 417.38 404.54C419.687 400.444 422.517 396.665 425.8 393.3C428.465 390.544 431.423 388.086 434.62 385.97C435.96 385.04 437.27 384.34 438.39 383.68C439.51 383.02 440.54 382.59 441.39 382.2L443.33 381.39C443.552 381.285 443.783 381.201 444.02 381.14C443.819 381.276 443.605 381.39 443.38 381.48L441.48 382.38C440.68 382.8 439.69 383.32 438.56 383.94C437.43 384.56 436.18 385.33 434.85 386.28C431.708 388.421 428.799 390.884 426.17 393.63C422.945 396.986 420.156 400.736 417.87 404.79C412.87 413.45 411.56 422.54 410.57 428.92C410.12 432.15 409.89 434.77 409.77 436.59C409.71 437.45 409.67 438.15 409.64 438.68C409.634 438.926 409.601 439.171 409.54 439.41Z" fill="#263238"/>
<path d="M363.1 362.19C353.1 368.19 353.17 373.67 354.84 378.84C356.51 384.01 362.61 387.59 367.68 385.66C370.55 384.56 372.62 382.07 374.4 379.57C376.18 377.07 377.83 374.39 380.32 372.57C382.81 370.75 386.4 370.09 388.9 371.87" fill="#263238"/>
<path d="M355.65 368.78C358.25 365.18 364.65 364.14 368.75 365.94C372.85 367.74 375.75 371.3 378.45 374.85C381.15 378.4 383.71 382.16 387.4 384.63C391.09 387.1 396.24 388 399.92 385.51C401.094 384.637 402.077 383.533 402.808 382.265C403.539 380.998 404.003 379.594 404.17 378.14C404.497 375.235 404.3 372.295 403.59 369.46C402.71 365.28 401.27 360.92 397.93 358.26C394.21 355.31 389.04 355.17 384.28 355.32C378.82 355.5 373.28 355.91 368.17 357.8C363.06 359.69 357.82 363.8 355.65 368.8" fill="#455A64"/>
<path d="M401.26 431.43C401.214 431.146 401.19 430.858 401.19 430.57L401.1 428.1C401.04 425.9 400.94 422.81 400.83 419.01C400.72 415.21 400.54 410.6 400.27 405.53C400 400.46 399.6 394.89 398.83 389.1C398.509 386.28 397.961 383.491 397.19 380.76C396.398 378.239 395.377 375.795 394.14 373.46C392.083 369.475 389.36 365.87 386.09 362.8C383.874 360.746 381.367 359.031 378.65 357.71C377.915 357.337 377.161 357.003 376.39 356.71C376.115 356.621 375.851 356.504 375.6 356.36C375.878 356.426 376.152 356.51 376.42 356.61C377.214 356.855 377.989 357.156 378.74 357.51C381.517 358.774 384.081 360.46 386.34 362.51C389.679 365.574 392.461 369.194 394.56 373.21C395.826 375.564 396.867 378.031 397.67 380.58C398.463 383.339 399.025 386.158 399.35 389.01C400.12 394.83 400.49 400.41 400.75 405.49C401.01 410.57 401.12 415.13 401.2 418.98C401.28 422.83 401.3 425.93 401.3 428.07V430.55C401.311 430.844 401.298 431.138 401.26 431.43Z" fill="#263238"/>
<path d="M404.85 435.93C404.366 434.539 403.995 433.111 403.74 431.66C403.048 427.699 402.89 423.663 403.27 419.66C403.875 413.723 405.147 407.873 407.06 402.22C409.11 395.81 411.88 388.95 414.25 381.59C415.418 378.013 416.373 374.37 417.11 370.68C417.765 367.238 418.236 363.763 418.52 360.27C418.977 354.345 419.087 348.398 418.85 342.46C418.68 337.39 418.42 333.29 418.25 330.46C418.17 329.08 418.11 327.98 418.07 327.2C418.07 326.85 418.07 326.57 418.07 326.35C418.053 326.254 418.053 326.156 418.07 326.06C418.075 326.153 418.075 326.247 418.07 326.34C418.07 326.56 418.12 326.84 418.16 327.19C418.23 327.97 418.32 329.06 418.44 330.45C418.67 333.28 418.99 337.38 419.21 342.45C419.498 348.402 419.425 354.367 418.99 360.31C418.717 363.823 418.253 367.318 417.6 370.78C416.871 374.501 415.916 378.175 414.74 381.78C412.36 389.17 409.57 396.01 407.51 402.4C405.586 408.017 404.285 413.829 403.63 419.73C403.217 423.71 403.318 427.726 403.93 431.68C404.17 433.08 404.39 434.16 404.59 434.88C404.67 435.22 404.73 435.49 404.79 435.71C404.817 435.781 404.837 435.855 404.85 435.93Z" fill="#263238"/>
<path d="M429.54 440.43H382.77L381.7 431.43H429.54V440.43Z" fill="#263238"/>
<path d="M387.79 439.41L393.64 466.42H419.05L424.52 439.41H387.79Z" fill="#263238"/>
<path d="M429.54 440.43C429.54 440.58 419.26 440.67 406.54 440.63C393.82 440.59 383.54 440.45 383.54 440.3C383.54 440.15 393.82 440.07 406.54 440.11C419.26 440.15 429.54 440.29 429.54 440.43Z" fill="#455A64"/>
<path d="M421.51 453.76C420.231 452.827 418.848 452.045 417.39 451.43C415.796 450.804 414.103 450.465 412.39 450.43C410.289 450.438 408.206 450.82 406.24 451.56C404.11 452.28 402.12 453.12 400.17 453.56C398.444 453.934 396.664 453.985 394.92 453.71C393.744 453.541 392.605 453.176 391.55 452.63C391.268 452.476 390.998 452.302 390.74 452.11C390.57 451.98 390.48 451.9 390.49 451.89C391.882 452.655 393.405 453.15 394.98 453.35C396.679 453.558 398.4 453.473 400.07 453.1C401.93 452.63 403.92 451.78 406.07 451.05C408.098 450.314 410.243 449.958 412.4 450C414.163 450.057 415.9 450.444 417.52 451.14C418.613 451.596 419.639 452.198 420.57 452.93C420.824 453.123 421.065 453.333 421.29 453.56C421.45 453.66 421.53 453.75 421.51 453.76Z" fill="#455A64"/>
<path d="M421.16 455.57C419.911 454.662 418.571 453.887 417.16 453.26C415.629 452.633 413.995 452.294 412.34 452.26C410.313 452.267 408.302 452.629 406.4 453.33C404.34 454.02 402.4 454.82 400.55 455.33C398.928 455.802 397.237 455.991 395.55 455.89C394.396 455.822 393.269 455.515 392.24 454.99C391.966 454.846 391.705 454.679 391.46 454.49C391.29 454.36 391.21 454.28 391.22 454.27C391.23 454.26 391.61 454.49 392.33 454.81C393.357 455.244 394.456 455.484 395.57 455.52C397.228 455.57 398.883 455.351 400.47 454.87C402.27 454.36 404.19 453.55 406.27 452.87C408.229 452.148 410.303 451.789 412.39 451.81C415.263 451.888 418.032 452.907 420.27 454.71C420.58 454.97 420.81 455.18 420.96 455.33C421.11 455.48 421.17 455.55 421.16 455.57Z" fill="white"/>
<path d="M422 452C420.671 451.043 419.251 450.219 417.76 449.54C416.132 448.841 414.398 448.425 412.63 448.31C410.464 448.266 408.31 448.646 406.29 449.43C404.239 450.237 402.142 450.921 400.01 451.48C398.217 451.792 396.383 451.792 394.59 451.48C393.381 451.284 392.209 450.91 391.11 450.37C390.817 450.214 390.537 450.037 390.27 449.84C390.09 449.7 390 449.62 390.01 449.61C390.02 449.6 390.43 449.84 391.2 450.19C392.305 450.649 393.464 450.962 394.65 451.12C396.401 451.37 398.181 451.333 399.92 451.01C401.85 450.59 403.92 449.68 406.12 448.94C408.203 448.133 410.427 447.755 412.66 447.83C414.477 447.973 416.255 448.437 417.91 449.2C419.022 449.697 420.067 450.332 421.02 451.09C421.281 451.293 421.532 451.51 421.77 451.74C421.91 451.87 422 452 422 452Z" fill="white"/>
<path d="M95 423.24C93 426.12 89.07 425.16 87.25 423.4C85.43 421.64 84.67 419.1 83.97 416.67C82.37 411.12 80.76 405.3 81.97 399.67C82.2443 397.94 82.9998 396.321 84.15 395C84.7244 394.352 85.4593 393.866 86.2809 393.593C87.1024 393.319 87.9817 393.266 88.83 393.44C90.83 393.96 92.04 395.89 92.93 397.73C95.5364 403.169 96.9026 409.119 96.93 415.15C96.93 417.96 96.61 420.9 95.02 423.22" fill="#E74779"/>
<g opacity="0.2">
<path d="M95 423.24C93 426.12 89.07 425.16 87.25 423.4C85.43 421.64 84.67 419.1 83.97 416.67C82.37 411.12 80.76 405.3 81.97 399.67C82.2443 397.94 82.9998 396.321 84.15 395C84.7244 394.352 85.4593 393.866 86.2809 393.593C87.1024 393.319 87.9817 393.266 88.83 393.44C90.83 393.96 92.04 395.89 92.93 397.73C95.5364 403.169 96.9026 409.119 96.93 415.15C96.93 417.96 96.61 420.9 95.02 423.22" fill="black"/>
</g>
<path d="M87.48 437.82C84.0996 436.237 80.3017 435.774 76.64 436.5C74.6365 436.676 72.7495 437.517 71.28 438.89C69.95 440.37 69.69 442.97 71.28 444.24C72.2695 444.909 73.4619 445.209 74.65 445.09C77.52 445.09 80.7 444.56 82.99 446.28C84.29 447.28 85.16 448.9 86.73 449.38C87.5104 449.562 88.3287 449.484 89.0611 449.159C89.7936 448.835 90.4005 448.28 90.79 447.58C91.5354 446.143 91.7001 444.475 91.25 442.92C91.0592 441.836 90.6194 440.811 89.9652 439.926C89.311 439.042 88.4603 438.32 87.48 437.82Z" fill="#E74779"/>
<path d="M100.57 427.37C99.5338 426.018 98.8436 424.432 98.5595 422.752C98.2754 421.072 98.4061 419.348 98.9401 417.73C100.041 414.492 102.017 411.623 104.65 409.44C107.637 406.794 111.112 404.756 114.88 403.44C116.339 402.85 117.908 402.584 119.48 402.66C120.265 402.703 121.028 402.937 121.701 403.344C122.374 403.75 122.937 404.315 123.34 404.99C124.41 407.04 123.34 409.53 122.26 411.56C120.298 415.143 118.055 418.564 115.55 421.79C113.55 424.39 111.23 426.95 108.16 428.12C105.09 429.29 101.9 429.12 100.28 427.03" fill="#E74779"/>
<path d="M95.17 466.67C95.0604 466.245 95 465.809 94.99 465.37C94.89 464.37 94.78 463.22 94.64 461.79C94.5 460.36 94.25 458.5 93.84 456.56C93.3695 454.449 92.7308 452.379 91.93 450.37C91.1501 448.367 90.0895 446.485 88.78 444.78C87.7079 443.392 86.3419 442.258 84.78 441.46C83.7202 440.95 82.586 440.613 81.42 440.46C80.9819 440.436 80.5468 440.372 80.12 440.27C80.5617 440.216 81.0083 440.216 81.45 440.27C82.6623 440.358 83.8483 440.667 84.95 441.18C86.5945 441.955 88.036 443.102 89.16 444.53C90.5292 446.256 91.6315 448.177 92.43 450.23C93.2452 452.267 93.8777 454.372 94.32 456.52C94.6614 458.271 94.8951 460.041 95.02 461.82C95.13 463.34 95.18 464.56 95.2 465.41C95.237 465.83 95.227 466.253 95.17 466.67Z" fill="#263238"/>
<path d="M94.92 463.93C94.8941 463.728 94.8941 463.523 94.92 463.32V461.58C94.92 460.08 94.92 457.9 94.85 455.2C94.71 449.82 94.25 442.38 93.35 434.2C92.45 426.02 91.25 418.68 90.16 413.4C89.91 412.08 89.65 410.89 89.4 409.85C89.15 408.81 88.97 407.9 88.78 407.18C88.59 406.46 88.48 405.93 88.37 405.49C88.3143 405.294 88.2807 405.093 88.27 404.89C88.3651 405.07 88.4358 405.262 88.48 405.46L88.98 407.12C89.21 407.84 89.44 408.74 89.7 409.78C89.96 410.82 90.26 412 90.54 413.32C92.03 420.195 93.1483 427.145 93.89 434.14C94.79 442.33 95.19 449.79 95.23 455.19C95.23 457.89 95.23 460.07 95.13 461.58C95.13 462.28 95.05 462.86 95.03 463.31C95.022 463.521 94.9849 463.729 94.92 463.93Z" fill="#263238"/>
<path d="M94.8901 449.55C94.8421 448.944 94.8421 448.336 94.8901 447.73C94.9601 446.57 95.1201 444.88 95.4501 442.82C96.3386 437.443 97.88 432.194 100.04 427.19C102.113 422.13 105.092 417.491 108.83 413.5C109.478 412.816 110.17 412.175 110.9 411.58C111.21 411.31 111.49 411.04 111.78 410.83L112.58 410.28C113.061 409.905 113.573 409.57 114.11 409.28C112.356 410.666 110.686 412.155 109.11 413.74C105.505 417.771 102.608 422.383 100.54 427.38C99.3579 430.112 98.3557 432.918 97.5401 435.78C96.7601 438.41 96.2401 440.83 95.8401 442.87C95.4401 444.91 95.2501 446.58 95.1201 447.73C95.0839 448.341 95.0071 448.949 94.8901 449.55Z" fill="#263238"/>
</svg>
